REM DIRINDEX 1\6,1\2\7,1\2\8,1\2\9,1\3\10,1\3\11,1\4\12,1\4\13,1\4\14,1\5\15,1\5\16,1\5\17
REM DIRNAME cjc041,folder01,folder02,folder03,folder04,folder05,folder06,folder07,folder08,folder09,folder10,folder11,folder12,folder13,folder14,folder15,folder16
TITLE ""
FILE "3Q_t2_0440-0455.mp3" MP3
  TRACK 01 AUDIO
    TITLE "7:cjc041_4735"
    INDEX 01 00:00:00
  TRACK 02 AUDIO
    TITLE "0:"
    INDEX 01 00:01:07
  TRACK 03 AUDIO
    TITLE "8:cjc041_4736"
    INDEX 01 00:01:60
  TRACK 04 AUDIO
    TITLE "0:"
    INDEX 01 00:03:10
  TRACK 05 AUDIO
    TITLE "9:cjc041_4737"
    INDEX 01 00:03:64
  TRACK 06 AUDIO
    TITLE "0:"
    INDEX 01 00:05:10
  TRACK 07 AUDIO
    TITLE "7:cjc041_4738"
    INDEX 01 00:06:63
  TRACK 08 AUDIO
    TITLE "0:"
    INDEX 01 00:07:70
  TRACK 09 AUDIO
    TITLE "8:cjc041_4739"
    INDEX 01 00:08:50
  TRACK 10 AUDIO
    TITLE "0:"
    INDEX 01 00:09:57
  TRACK 11 AUDIO
    TITLE "9:cjc041_4740"
    INDEX 01 00:10:39
  TRACK 12 AUDIO
    TITLE "0:"
    INDEX 01 00:11:48
  TRACK 13 AUDIO
    TITLE "7:cjc041_4741"
    INDEX 01 00:13:26
  TRACK 14 AUDIO
    TITLE "0:"
    INDEX 01 00:14:43
  TRACK 15 AUDIO
    TITLE "8:cjc041_4742"
    INDEX 01 00:15:23
  TRACK 16 AUDIO
    TITLE "0:"
    INDEX 01 00:16:28
  TRACK 17 AUDIO
    TITLE "9:cjc041_4743"
    INDEX 01 00:17:12
  TRACK 18 AUDIO
    TITLE "0:"
    INDEX 01 00:18:31
  TRACK 19 AUDIO
    TITLE "7:cjc041_4744"
    INDEX 01 00:20:08
  TRACK 20 AUDIO
    TITLE "0:"
    INDEX 01 00:21:31
  TRACK 21 AUDIO
    TITLE "8:cjc041_4745"
    INDEX 01 00:22:05
  TRACK 22 AUDIO
    TITLE "0:"
    INDEX 01 00:23:18
  TRACK 23 AUDIO
    TITLE "9:cjc041_4746"
    INDEX 01 00:23:71
  TRACK 24 AUDIO
    TITLE "0:"
    INDEX 01 00:25:21
  TRACK 25 AUDIO
    TITLE "7:cjc041_4747"
    INDEX 01 00:27:00
  TRACK 26 AUDIO
    TITLE "0:"
    INDEX 01 00:28:21
  TRACK 27 AUDIO
    TITLE "8:cjc041_4748"
    INDEX 01 00:28:70
  TRACK 28 AUDIO
    TITLE "0:"
    INDEX 01 00:31:16
  TRACK 29 AUDIO
    TITLE "9:cjc041_4749"
    INDEX 01 00:31:69
  TRACK 30 AUDIO
    TITLE "0:"
    INDEX 01 00:33:15
  TRACK 31 AUDIO
    TITLE "7:cjc041_4750"
    INDEX 01 00:34:73
  TRACK 32 AUDIO
    TITLE "0:"
    INDEX 01 00:36:27
  TRACK 33 AUDIO
    TITLE "8:cjc041_4751"
    INDEX 01 00:37:07
  TRACK 34 AUDIO
    TITLE "0:"
    INDEX 01 00:38:24
  TRACK 35 AUDIO
    TITLE "9:cjc041_4752"
    INDEX 01 00:39:03
  TRACK 36 AUDIO
    TITLE "0:"
    INDEX 01 00:40:34
  TRACK 37 AUDIO
    TITLE "7:cjc041_4753"
    INDEX 01 00:42:19
  TRACK 38 AUDIO
    TITLE "0:"
    INDEX 01 00:43:44
  TRACK 39 AUDIO
    TITLE "8:cjc041_4754"
    INDEX 01 00:44:20
  TRACK 40 AUDIO
    TITLE "0:"
    INDEX 01 00:46:33
  TRACK 41 AUDIO
    TITLE "9:cjc041_4755"
    INDEX 01 00:47:13
  TRACK 42 AUDIO
    TITLE "0:"
    INDEX 01 00:48:40
  TRACK 43 AUDIO
    TITLE "7:cjc041_4756"
    INDEX 01 00:50:19
  TRACK 44 AUDIO
    TITLE "0:"
    INDEX 01 00:51:34
  TRACK 45 AUDIO
    TITLE "8:cjc041_4757"
    INDEX 01 00:52:12
  TRACK 46 AUDIO
    TITLE "0:"
    INDEX 01 00:53:33
  TRACK 47 AUDIO
    TITLE "9:cjc041_4758"
    INDEX 01 00:54:05
  TRACK 48 AUDIO
    TITLE "0:"
    INDEX 01 00:55:28
  TRACK 49 AUDIO
    TITLE "7:cjc041_4759"
    INDEX 01 00:57:07
  TRACK 50 AUDIO
    TITLE "0:"
    INDEX 01 00:58:18
  TRACK 51 AUDIO
    TITLE "8:cjc041_4760"
    INDEX 01 00:58:62
  TRACK 52 AUDIO
    TITLE "0:"
    INDEX 01 00:59:63
  TRACK 53 AUDIO
    TITLE "9:cjc041_4761"
    INDEX 01 01:00:41
  TRACK 54 AUDIO
    TITLE "0:"
    INDEX 01 01:01:52
  TRACK 55 AUDIO
    TITLE "7:cjc041_4762"
    INDEX 01 01:03:33
  TRACK 56 AUDIO
    TITLE "0:"
    INDEX 01 01:04:52
  TRACK 57 AUDIO
    TITLE "8:cjc041_4763"
    INDEX 01 01:05:30
  TRACK 58 AUDIO
    TITLE "0:"
    INDEX 01 01:06:28
  TRACK 59 AUDIO
    TITLE "9:cjc041_4764"
    INDEX 01 01:07:02
  TRACK 60 AUDIO
    TITLE "0:"
    INDEX 01 01:08:21
  TRACK 61 AUDIO
    TITLE "7:cjc041_4765"
    INDEX 01 01:10:00
  TRACK 62 AUDIO
    TITLE "0:"
    INDEX 01 01:11:09
  TRACK 63 AUDIO
    TITLE "8:cjc041_4766"
    INDEX 01 01:11:62
  TRACK 64 AUDIO
    TITLE "0:"
    INDEX 01 01:14:19
  TRACK 65 AUDIO
    TITLE "9:cjc041_4767"
    INDEX 01 01:14:74
  TRACK 66 AUDIO
    TITLE "0:"
    INDEX 01 01:16:07
  TRACK 67 AUDIO
    TITLE "7:cjc041_4768"
    INDEX 01 01:17:63
  TRACK 68 AUDIO
    TITLE "0:"
    INDEX 01 01:19:01
  TRACK 69 AUDIO
    TITLE "8:cjc041_4769"
    INDEX 01 01:19:56
  TRACK 70 AUDIO
    TITLE "0:"
    INDEX 01 01:22:01
  TRACK 71 AUDIO
    TITLE "9:cjc041_4770"
    INDEX 01 01:22:52
  TRACK 72 AUDIO
    TITLE "0:"
    INDEX 01 01:23:69
  TRACK 73 AUDIO
    TITLE "7:cjc041_4771"
    INDEX 01 01:25:49
  TRACK 74 AUDIO
    TITLE "0:"
    INDEX 01 01:26:66
  TRACK 75 AUDIO
    TITLE "8:cjc041_4772"
    INDEX 01 01:27:40
  TRACK 76 AUDIO
    TITLE "0:"
    INDEX 01 01:29:01
  TRACK 77 AUDIO
    TITLE "9:cjc041_4773"
    INDEX 01 01:29:52
  TRACK 78 AUDIO
    TITLE "0:"
    INDEX 01 01:30:73
  TRACK 79 AUDIO
    TITLE "7:cjc041_4774"
    INDEX 01 01:32:57
  TRACK 80 AUDIO
    TITLE "0:"
    INDEX 01 01:34:01
  TRACK 81 AUDIO
    TITLE "8:cjc041_4775"
    INDEX 01 01:34:52
  TRACK 82 AUDIO
    TITLE "0:"
    INDEX 01 01:35:63
  TRACK 83 AUDIO
    TITLE "9:cjc041_4776"
    INDEX 01 01:36:39
  TRACK 84 AUDIO
    TITLE "0:"
    INDEX 01 01:37:64
  TRACK 85 AUDIO
    TITLE "7:cjc041_4777"
    INDEX 01 01:39:41
  TRACK 86 AUDIO
    TITLE "0:"
    INDEX 01 01:40:52
  TRACK 87 AUDIO
    TITLE "8:cjc041_4778"
    INDEX 01 01:41:28
  TRACK 88 AUDIO
    TITLE "0:"
    INDEX 01 01:43:37
  TRACK 89 AUDIO
    TITLE "9:cjc041_4779"
    INDEX 01 01:44:11
  TRACK 90 AUDIO
    TITLE "0:"
    INDEX 01 01:45:22
  TRACK 91 AUDIO
    TITLE "7:cjc041_4780"
    INDEX 01 01:46:70
  TRACK 92 AUDIO
    TITLE "0:"
    INDEX 01 01:48:01
  TRACK 93 AUDIO
    TITLE "8:cjc041_4781"
    INDEX 01 01:48:56
  TRACK 94 AUDIO
    TITLE "0:"
    INDEX 01 01:50:66
  TRACK 95 AUDIO
    TITLE "9:cjc041_4782"
    INDEX 01 01:51:50
  TRACK 96 AUDIO
    TITLE "0:"
    INDEX 01 01:52:57
